# xmcd
#
# Track frame offsets: 
#        150
#        25560
#        49939
#        81254
#        148579
#        187290
#        205735
#        233351
#
# Disc length: 3369 seconds
#
# Revision: 1
# Processed by: cddbd v1.5.2PL0 Copyright (c) Steve Scherf et al.
# Submitted via: ExactAudioCopyFreeDBPlugin 1.0
#
DISCID=650d2708
DTITLE=Zé Eduardo and Jack Walrath Quartet - Bad Guys
DYEAR=2005
DGENRE=Jazz
TTITLE0=Simian Spring Song
TTITLE1=Birds Fly Free
TTITLE2=Novíssims
TTITLE3=Sue's Changes
TTITLE4=Bazaar
TTITLE5=Realejo
TTITLE6=Prou
TTITLE7=Sun Sol
EXTD=YEAR: 2005
EXTT0=
EXTT1=
EXTT2=
EXTT3=
EXTT4=
EXTT5=
EXTT6=
EXTT7=
PLAYORDER=
